<?xml version="1.0" encoding="utf-8"?>
<!-- Generator: Adobe Illustrator 21.1.0, SVG Export Plug-In . SVG Version: 6.00 Build 0)  -->
<svg version="1.1" id="Layer_1" xmlns="http://www.w3.org/2000/svg" xmlns:xlink="http://www.w3.org/1999/xlink" x="0px" y="0px"
	 viewBox="0 0 1000 1000" style="enable-background:new 0 0 1000 1000;" xml:space="preserve">
<style type="text/css">
	.st0{fill:#E2F0F5;}
</style>
<path d="M901.3,267.5c-0.9,117.4-31.6,206.3-71,293.1c-63.6,139.9-149.3,267.6-250,386.8c-11.7,13.8-26.5,25.3-39.9,37.8
	c-20.9,19.4-30.9,20.5-51.1-0.5c-41.4-43-78.6-89.2-116.1-135.3c-69.2-85.1-130.2-175.2-182.3-270c-49-89.1-89.3-182.4-93.3-283.6
	C92.7,175.3,149,83.9,290.3,36.1C380.9,5.5,474.5-4.2,569.6,1.9c70.3,4.5,139.2,18.5,201,52.7C866.2,107.6,903.7,188.7,901.3,267.5z
	"/>
<path class="st0" d="M783.4,298.7c-0.6,83-22.3,145.8-50.2,207.2C688.3,604.7,627.7,695,556.5,779.2c-8.2,9.7-18.7,17.9-28.2,26.7
	c-14.8,13.7-21.8,14.5-36.1-0.4c-29.2-30.4-55.6-63.1-82-95.6c-48.9-60.2-92-123.8-128.8-190.9c-34.6-63-63.1-128.9-66-200.4
	c-3.4-85.1,36.4-149.7,136.3-183.5c64-21.6,130.2-28.5,197.4-24.2c49.7,3.2,98.4,13,142.1,37.3C758.6,185.7,785.1,243,783.4,298.7z"
	/>
<path d="M729.3,314.3c-0.5,67-18,117.7-40.5,167.2c-36.2,79.8-85.1,152.6-142.6,220.6c-6.7,7.9-15.1,14.4-22.8,21.5
	c-11.9,11-17.6,11.7-29.2-0.3c-23.6-24.5-44.8-50.9-66.2-77.1c-39.5-48.6-74.2-99.9-104-154c-27.9-50.8-50.9-104-53.2-161.7
	c-2.7-68.7,29.4-120.8,110-148c51.7-17.5,105.1-23,159.3-19.5c40.1,2.6,79.4,10.5,114.6,30.1C709.3,223.2,730.6,269.4,729.3,314.3z"
	/>
</svg>
