<?xml version="1.0" encoding="utf-8"?>
<!-- Generator: Adobe Illustrator 21.1.0, SVG Export Plug-In . SVG Version: 6.00 Build 0)  -->
<svg version="1.1" id="Layer_1" xmlns="http://www.w3.org/2000/svg" xmlns:xlink="http://www.w3.org/1999/xlink" x="0px" y="0px"
	 viewBox="0 0 1000 1000" style="enable-background:new 0 0 1000 1000;" xml:space="preserve">
<style type="text/css">
	.st0{fill:#232323;}
	.st1{fill:#DDDDDD;}
</style>
<g>
	
		<image style="overflow:visible;" width="967" height="563" xlink:href="EC55F81914B38E8C.png"  transform="matrix(1 0 0 1 13 524)">
	</image>
</g>
<path class="st0" d="M687.4,653.9C647,710.6,593,794.8,524.6,820.3C450.5,848,379,752.4,339.3,701.9
	c-94.3-120.1-170.4-261.8-200-412.7c-14.3-73.2-4-156.9,55.2-208.3C254.3,29,341.7,11.5,418,4.4C553.4-8.2,794.6-3.2,846.5,155.4
	C899.9,318.9,778.6,525.8,687.4,653.9z"/>
<path class="st1" d="M846.5,155.4C794.6-3.2,553.4-8.2,418,4.4C341.7,11.5,254.3,29,194.6,80.8C135.3,132.3,125,216,139.4,289.2
	c29.6,150.9,105.7,292.6,200,412.7c39.6,50.5,111.2,146,185.3,118.4c68.4-25.5,122.4-109.7,162.8-166.4
	C778.6,525.8,899.9,318.9,846.5,155.4z M803.3,238.8C786.6,413.1,683.4,591.7,565,717.3c-17.2,18.3-45.4,53.7-73.3,52.4
	c-34.6-1.7-81.2-70-100.5-94c-47-58.1-90.5-121.4-123.4-188.6c-37.4-76.3-80.8-172.4-79.1-259.1c1.8-96.4,75.6-136.9,160.4-156.4
	c99.3-22.8,213-22.4,311.5,4.3C748.6,99.7,800.1,144.9,803.3,238.8z"/>
<path class="st1" d="M771.6,228.5c-13.4,150.7-91.9,293.4-183.1,411.4c-21,27.1-47.9,70.5-78.6,86.4c-28.3,14.7-48-18.3-68.3-40.7
	c-42.5-47-80.3-100.7-113.3-154.7c-48.9-80-91-176.9-104.7-270c-12.9-88,35.9-131.8,115.4-153.6C450.2,76.7,769.6,53.5,771.6,228.5z
	"/>
</svg>
